<?xml version="1.0" encoding="UTF-8"?>
<svg id="celli-logo" xmlns="http://www.w3.org/2000/svg" viewBox="0 0 105.83 119.56">
  <g data-name="celli-logo">
    <g opacity="0.1">
      <path fill="#FFC311" d="M99.83,79.88v-40.2c0-4.2-2.25-8.08-5.89-10.17L58.74,9.34c-3.61-2.07-8.05-2.07-11.66,0L11.89,29.51c-3.64,2.09-5.89,5.97-5.89,10.17v40.2c0,4.2,2.25,8.08,5.89,10.17l35.19,20.17c3.61,2.07,8.05,2.07,11.66,0l35.19-20.17c3.64-2.09,5.89-5.97,5.89-10.17Z"/>
    </g>
    <path fill="#FFC311" d="M76.37,69.76v-19.96c0-2.14-1.15-4.12-3.01-5.19l-17.48-10.02c-1.84-1.06-4.1-1.06-5.95,0l-17.48,10.02c-1.86,1.07-3.01,3.04-3.01,5.19v19.96c0,2.14,1.15,4.12,3.01,5.19l17.48,10.02c1.84,1.06,4.1,1.06,5.95,0l17.48-10.02c1.86-1.07,3.01-3.04,3.01-5.19Z"/>
    <path fill="#FFC311" d="M99.83,84.23c-3.31,0-6-2.69-6-6v-38.32c0-2.18-1.18-4.21-3.07-5.29L49.93,11.21c-2.87-1.65-3.87-5.31-2.22-8.19s5.31-3.87,8.19-2.22l40.83,23.4c5.61,3.22,9.1,9.23,9.1,15.7v38.32c0,3.31-2.69,6-6,6Z"/>
    <path fill="#FFC311" d="M52.91,119.56c-1.01,0-2.04-.26-2.98-.8l-40.83-23.4c-5.61-3.22-9.1-9.23-9.1-15.7v-36.77c0-3.31,2.69-6,6-6s6,2.69,6,6v36.77c0,2.18,1.17,4.21,3.07,5.29l40.83,23.4c2.88,1.65,3.87,5.31,2.22,8.19-1.11,1.93-3.13,3.02-5.21,3.02Z"/>
  </g>
</svg>
